<?xml version="1.0" encoding="utf-8"?>
<!-- Generator: Adobe Illustrator 23.0.1, SVG Export Plug-In . SVG Version: 6.00 Build 0)  -->
<svg version="1.1" xmlns="http://www.w3.org/2000/svg" xmlns:xlink="http://www.w3.org/1999/xlink" x="0px" y="0px"
	 viewBox="0 0 1920 1625.4" style="enable-background:new 0 0 1920 1625.4;" xml:space="preserve">
<style type="text/css">
	.st0{display:none;}
	.st1{display:inline;fill:#F7F7F7;}
	.st2{fill:#F7F7F7;}
</style>
<g id="Layer_1" class="st0">
	
		<image style="display:inline;overflow:visible;" width="1920" height="5181" xlink:href="../../../../../../x-web-ui-ONAS.jpg"  transform="matrix(1 0 0 1 0 -1726.234)">
	</image>
</g>
<g id="Layer_2" class="st0">
	<path class="st1" d="M-21.9,444.7c0,0,177.7,32.7,367.7,196.1c0,0,228.8,171.6,686.3,286c0,0,623,113.9,889.5-20.9v197.6
		c0,0-973.3,485.1-1921-35.7L-21.9,444.7z"/>
</g>
<g id="Layer_3">
	<path class="st2" d="M1.7,1610c0,0,913-324.8,1121.4-508.6c0,0,569.9-392.2,793.5-272.7V166.9V1.4c0,0-523.9,337-563.7,441.2
		c0,0-2.8,2.7-7,8.5c-19.1,26.8-210.7,225.1-520,230.5c0,0-490.2-21.4-830.3-196.1L1.7,1610z"/>
</g>
</svg>
