<?xml version="1.0" encoding="utf-8"?>
<!-- Generator: Adobe Illustrator 23.0.1, SVG Export Plug-In . SVG Version: 6.00 Build 0)  -->
<svg version="1.1" xmlns="http://www.w3.org/2000/svg" xmlns:xlink="http://www.w3.org/1999/xlink" x="0px" y="0px"
	 viewBox="0 0 124.6 122" style="enable-background:new 0 0 124.6 122;" xml:space="preserve">
<style type="text/css">
	.st0{display:none;}
	.st1{display:inline;fill:#FFFFFF;stroke:#05A0E3;stroke-width:5.6693;stroke-miterlimit:10;}
	.st2{display:inline;fill:#05A0E3;}
	.st3{fill:none;stroke:#FFFFFF;stroke-miterlimit:10;}
	.st4{fill:#FFFFFF;}
	.st5{fill:#FFFFFF;stroke:#FFFFFF;stroke-miterlimit:10;}
	.st6{fill:#05A0E3;}
</style>
<g id="Layer_1" class="st0">
	
		<image style="display:inline;overflow:visible;" width="1920" height="5181" xlink:href="../../../../../../x-web-ui-ONAS.jpg"  transform="matrix(1 0 0 1 -63.3191 -2964.0212)">
	</image>
</g>
<g id="card1" class="st0">
	<path class="st1" d="M13.3,105.6V17.4c0,0,0.3-3.8,6.8-2.4l47,7.1c0,0,1.9,0.2,2,3.8v24.5l41.7,10c0,0,1.5,0.6,1.7,4.2v43.6
		c0,0,0,3.3-4.2,3.5H64.5H30.7H17.6C17.6,111.8,13.3,112.1,13.3,105.6z"/>
	<path class="st1" d="M30.7,111.8V89.5c0,0,0.2-3.9,4.6-3.8h13.9c0,0,2.5,0.2,2.6,3.3V112L30.7,111.8z"/>
	<line class="st1" x1="69.1" y1="50.4" x2="69.1" y2="111.5"/>
	<path class="st2" d="M35.9,36.6h-9.8c-0.4,0-0.7-0.3-0.7-0.7v-2.1c0-0.4,0.3-0.7,0.7-0.7h9.8c0.4,0,0.7,0.3,0.7,0.7v2.1
		C36.6,36.3,36.2,36.6,35.9,36.6z"/>
	<path class="st2" d="M56.7,36.5H47c-0.4,0-0.7-0.3-0.7-0.7v-2.1c0-0.4,0.3-0.7,0.7-0.7h9.8c0.4,0,0.7,0.3,0.7,0.7v2.1
		C57.4,36.2,57.1,36.5,56.7,36.5z"/>
	<path class="st2" d="M35.8,49H26c-0.4,0-0.7-0.3-0.7-0.7v-2.1c0-0.4,0.3-0.7,0.7-0.7h9.8c0.4,0,0.7,0.3,0.7,0.7v2.1
		C36.5,48.6,36.2,49,35.8,49z"/>
	<path class="st2" d="M56.6,48.9h-9.8c-0.4,0-0.7-0.3-0.7-0.7V46c0-0.4,0.3-0.7,0.7-0.7h9.8c0.4,0,0.7,0.3,0.7,0.7v2.1
		C57.3,48.5,57,48.9,56.6,48.9z"/>
	<path class="st2" d="M35.7,62.2h-9.8c-0.4,0-0.7-0.3-0.7-0.7v-2.1c0-0.4,0.3-0.7,0.7-0.7h9.8c0.4,0,0.7,0.3,0.7,0.7v2.1
		C36.4,61.9,36.1,62.2,35.7,62.2z"/>
	<path class="st2" d="M56.5,62.1h-9.8c-0.4,0-0.7-0.3-0.7-0.7v-2.1c0-0.4,0.3-0.7,0.7-0.7h9.8c0.4,0,0.7,0.3,0.7,0.7v2.1
		C57.2,61.8,56.9,62.1,56.5,62.1z"/>
	<path class="st2" d="M35.7,74.6h-9.8c-0.4,0-0.7-0.3-0.7-0.7v-2.1c0-0.4,0.3-0.7,0.7-0.7h9.8c0.4,0,0.7,0.3,0.7,0.7v2.1
		C36.4,74.3,36.1,74.6,35.7,74.6z"/>
	<path class="st2" d="M56.5,74.5h-9.8c-0.4,0-0.7-0.3-0.7-0.7v-2.1c0-0.4,0.3-0.7,0.7-0.7h9.8c0.4,0,0.7,0.3,0.7,0.7v2.1
		C57.2,74.2,56.9,74.5,56.5,74.5z"/>
	<path class="st2" d="M95.6,75.1h-9.8c-0.4,0-0.7-0.3-0.7-0.7v-2.1c0-0.4,0.3-0.7,0.7-0.7h9.8c0.4,0,0.7,0.3,0.7,0.7v2.1
		C96.3,74.8,96,75.1,95.6,75.1z"/>
	<path class="st2" d="M95.3,87.9h-9.8c-0.4,0-0.7-0.3-0.7-0.7v-2.1c0-0.4,0.3-0.7,0.7-0.7h9.8c0.4,0,0.7,0.3,0.7,0.7v2.1
		C96,87.6,95.7,87.9,95.3,87.9z"/>
	<path class="st2" d="M95.4,100.6h-9.8c-0.4,0-0.7-0.3-0.7-0.7v-2.1c0-0.4,0.3-0.7,0.7-0.7h9.8c0.4,0,0.7,0.3,0.7,0.7v2.1
		C96.1,100.3,95.8,100.6,95.4,100.6z"/>
</g>
<g id="card2">
	<path class="st3" d="M54.9,86.4H12.7c0,0-13.1,4-9.3,17.5c0,0,3.5,10.5,13.3,9.9h46.1c0,0,10.4-3.5,11.1-13.8c0,0-1.2-7.4-8.5-13.7
		c0,0-0.1-4.7-0.5-11.1c-0.6-9.4-2-22.4-4.8-30.5c0,0-1.5-2-4.2-2.2H36.6c0,0-5.9,1.6-4.1,14.1"/>
	<path class="st3" d="M64.9,75.1H49.6c0,0-5.4-7.9-9.2-8.2H11.9c0,0-1.6,0.5-1.2,7.9"/>
	<path class="st4" d="M16.5,102.3h-1.3c-1,0-1.8-0.8-1.8-1.8v-1.3c0-1,0.8-1.8,1.8-1.8h1.3c1,0,1.8,0.8,1.8,1.8v1.3
		C18.3,101.5,17.5,102.3,16.5,102.3z"/>
	<path class="st4" d="M27.8,102.3h-1.3c-1,0-1.8-0.8-1.8-1.8v-1.3c0-1,0.8-1.8,1.8-1.8h1.3c1,0,1.8,0.8,1.8,1.8v1.3
		C29.6,101.5,28.8,102.3,27.8,102.3z"/>
	<path class="st4" d="M38.7,102.3h-1.3c-1,0-1.8-0.8-1.8-1.8v-1.3c0-1,0.8-1.8,1.8-1.8h1.3c1,0,1.8,0.8,1.8,1.8v1.3
		C40.5,101.5,39.7,102.3,38.7,102.3z"/>
	<path class="st4" d="M50.3,102.2H49c-1,0-1.8-0.8-1.8-1.8v-1.3c0-1,0.8-1.8,1.8-1.8h1.3c1,0,1.8,0.8,1.8,1.8v1.3
		C52.2,101.4,51.3,102.2,50.3,102.2z"/>
	<path class="st4" d="M60.9,102.2h-1.3c-1,0-1.8-0.8-1.8-1.8v-1.3c0-1,0.8-1.8,1.8-1.8h1.3c1,0,1.8,0.8,1.8,1.8v1.3
		C62.7,101.4,61.9,102.2,60.9,102.2z"/>
	<path class="st3" d="M89,9.5h10.5h2.4h3.7c0,0,1.3,0.3,1.3,5.4v47.3"/>
	<line class="st3" x1="99.5" y1="9.5" x2="60.5" y2="34.3"/>
	<line class="st3" x1="101.9" y1="9.5" x2="72.5" y2="61.4"/>
	<circle class="st5" cx="106.1" cy="76.1" r="15.6"/>
	<circle class="st6" cx="106.3" cy="76.2" r="13"/>
</g>
</svg>
