<?xml version="1.0" encoding="utf-8"?>
<!-- Generator: Adobe Illustrator 23.0.1, SVG Export Plug-In . SVG Version: 6.00 Build 0)  -->
<svg version="1.1" xmlns="http://www.w3.org/2000/svg" xmlns:xlink="http://www.w3.org/1999/xlink" x="0px" y="0px"
	 viewBox="0 0 124.6 122" style="enable-background:new 0 0 124.6 122;" xml:space="preserve">
<style type="text/css">
	.st0{display:none;}
	.st1{display:inline;fill:#FFFFFF;stroke:#05A0E3;stroke-width:5.6693;stroke-miterlimit:10;}
	.st2{display:inline;fill:#05A0E3;}
	.st3{display:inline;fill:none;stroke:#FFFFFF;stroke-miterlimit:10;}
	.st4{display:inline;fill:#FFFFFF;}
	.st5{display:inline;fill:#FFFFFF;stroke:#FFFFFF;stroke-miterlimit:10;}
	.st6{fill:none;stroke:#FFFFFF;stroke-miterlimit:10;}
	.st7{fill:#FFFFFF;}
	.st8{fill:#FFFFFF;stroke:#FFFFFF;stroke-miterlimit:10;}
	.st9{fill:#05A0E3;stroke:#FFFFFF;stroke-miterlimit:10;}
</style>
<g id="Layer_1" class="st0">
	
		<image style="display:inline;overflow:visible;" width="1920" height="5181" xlink:href="../../../../../../x-web-ui-ONAS.jpg"  transform="matrix(1 0 0 1 -63.3191 -2964.0212)">
	</image>
</g>
<g id="card1" class="st0">
	<path class="st1" d="M13.3,105.6V17.4c0,0,0.3-3.8,6.8-2.4l47,7.1c0,0,1.9,0.2,2,3.8v24.5l41.7,10c0,0,1.5,0.6,1.7,4.2v43.6
		c0,0,0,3.3-4.2,3.5H64.5H30.7H17.6C17.6,111.8,13.3,112.1,13.3,105.6z"/>
	<path class="st1" d="M30.7,111.8V89.5c0,0,0.2-3.9,4.6-3.8h13.9c0,0,2.5,0.2,2.6,3.3V112L30.7,111.8z"/>
	<line class="st1" x1="69.1" y1="50.4" x2="69.1" y2="111.5"/>
	<path class="st2" d="M35.9,36.6h-9.8c-0.4,0-0.7-0.3-0.7-0.7v-2.1c0-0.4,0.3-0.7,0.7-0.7h9.8c0.4,0,0.7,0.3,0.7,0.7v2.1
		C36.6,36.3,36.2,36.6,35.9,36.6z"/>
	<path class="st2" d="M56.7,36.5H47c-0.4,0-0.7-0.3-0.7-0.7v-2.1c0-0.4,0.3-0.7,0.7-0.7h9.8c0.4,0,0.7,0.3,0.7,0.7v2.1
		C57.4,36.2,57.1,36.5,56.7,36.5z"/>
	<path class="st2" d="M35.8,49H26c-0.4,0-0.7-0.3-0.7-0.7v-2.1c0-0.4,0.3-0.7,0.7-0.7h9.8c0.4,0,0.7,0.3,0.7,0.7v2.1
		C36.5,48.6,36.2,49,35.8,49z"/>
	<path class="st2" d="M56.6,48.9h-9.8c-0.4,0-0.7-0.3-0.7-0.7V46c0-0.4,0.3-0.7,0.7-0.7h9.8c0.4,0,0.7,0.3,0.7,0.7v2.1
		C57.3,48.5,57,48.9,56.6,48.9z"/>
	<path class="st2" d="M35.7,62.2h-9.8c-0.4,0-0.7-0.3-0.7-0.7v-2.1c0-0.4,0.3-0.7,0.7-0.7h9.8c0.4,0,0.7,0.3,0.7,0.7v2.1
		C36.4,61.9,36.1,62.2,35.7,62.2z"/>
	<path class="st2" d="M56.5,62.1h-9.8c-0.4,0-0.7-0.3-0.7-0.7v-2.1c0-0.4,0.3-0.7,0.7-0.7h9.8c0.4,0,0.7,0.3,0.7,0.7v2.1
		C57.2,61.8,56.9,62.1,56.5,62.1z"/>
	<path class="st2" d="M35.7,74.6h-9.8c-0.4,0-0.7-0.3-0.7-0.7v-2.1c0-0.4,0.3-0.7,0.7-0.7h9.8c0.4,0,0.7,0.3,0.7,0.7v2.1
		C36.4,74.3,36.1,74.6,35.7,74.6z"/>
	<path class="st2" d="M56.5,74.5h-9.8c-0.4,0-0.7-0.3-0.7-0.7v-2.1c0-0.4,0.3-0.7,0.7-0.7h9.8c0.4,0,0.7,0.3,0.7,0.7v2.1
		C57.2,74.2,56.9,74.5,56.5,74.5z"/>
	<path class="st2" d="M95.6,75.1h-9.8c-0.4,0-0.7-0.3-0.7-0.7v-2.1c0-0.4,0.3-0.7,0.7-0.7h9.8c0.4,0,0.7,0.3,0.7,0.7v2.1
		C96.3,74.8,96,75.1,95.6,75.1z"/>
	<path class="st2" d="M95.3,87.9h-9.8c-0.4,0-0.7-0.3-0.7-0.7v-2.1c0-0.4,0.3-0.7,0.7-0.7h9.8c0.4,0,0.7,0.3,0.7,0.7v2.1
		C96,87.6,95.7,87.9,95.3,87.9z"/>
	<path class="st2" d="M95.4,100.6h-9.8c-0.4,0-0.7-0.3-0.7-0.7v-2.1c0-0.4,0.3-0.7,0.7-0.7h9.8c0.4,0,0.7,0.3,0.7,0.7v2.1
		C96.1,100.3,95.8,100.6,95.4,100.6z"/>
</g>
<g id="card2" class="st0">
	<path class="st3" d="M54.9,86.4H12.7c0,0-13.1,4-9.3,17.5c0,0,3.5,10.5,13.3,9.9h46.1c0,0,10.4-3.5,11.1-13.8c0,0-1.2-7.4-8.5-13.7
		c0,0-0.1-4.7-0.5-11.1c-0.6-9.4-2-22.4-4.8-30.5c0,0-1.5-2-4.2-2.2H36.6c0,0-5.9,1.6-4.1,14.1"/>
	<path class="st3" d="M64.9,75.1H49.6c0,0-5.4-7.9-9.2-8.2H11.9c0,0-1.6,0.5-1.2,7.9"/>
	<path class="st4" d="M16.5,102.3h-1.3c-1,0-1.8-0.8-1.8-1.8v-1.3c0-1,0.8-1.8,1.8-1.8h1.3c1,0,1.8,0.8,1.8,1.8v1.3
		C18.3,101.5,17.5,102.3,16.5,102.3z"/>
	<path class="st4" d="M27.8,102.3h-1.3c-1,0-1.8-0.8-1.8-1.8v-1.3c0-1,0.8-1.8,1.8-1.8h1.3c1,0,1.8,0.8,1.8,1.8v1.3
		C29.6,101.5,28.8,102.3,27.8,102.3z"/>
	<path class="st4" d="M38.7,102.3h-1.3c-1,0-1.8-0.8-1.8-1.8v-1.3c0-1,0.8-1.8,1.8-1.8h1.3c1,0,1.8,0.8,1.8,1.8v1.3
		C40.5,101.5,39.7,102.3,38.7,102.3z"/>
	<path class="st4" d="M50.3,102.2H49c-1,0-1.8-0.8-1.8-1.8v-1.3c0-1,0.8-1.8,1.8-1.8h1.3c1,0,1.8,0.8,1.8,1.8v1.3
		C52.2,101.4,51.3,102.2,50.3,102.2z"/>
	<path class="st4" d="M60.9,102.2h-1.3c-1,0-1.8-0.8-1.8-1.8v-1.3c0-1,0.8-1.8,1.8-1.8h1.3c1,0,1.8,0.8,1.8,1.8v1.3
		C62.7,101.4,61.9,102.2,60.9,102.2z"/>
	<path class="st3" d="M89,9.5h10.5h2.4h3.7c0,0,1.3,0.3,1.3,5.4v47.3"/>
	<line class="st3" x1="99.5" y1="9.5" x2="60.5" y2="34.3"/>
	<line class="st3" x1="101.9" y1="9.5" x2="72.5" y2="61.4"/>
	<circle class="st5" cx="106.1" cy="76.1" r="15.6"/>
	<circle class="st2" cx="106.3" cy="76.2" r="13"/>
</g>
<g id="card3">
	<path class="st6" d="M15.4,116c0,0-14.5-1.8-13.3-17.4c0,0,1.6-5.5,4.8-8l46.2-40.9c0,0,2.2-4.3,1.7-12.1c0,0-2.8-14.9,8-25.7
		c0,0,11.2-13.5,32.1-7.1l-6.7,6.6"/>
	<path class="st6" d="M22.3,114.6c0,0,7.4-4.4,23.2-23.7l23.4-25.5c0,0,0.5-2.7,11.5-2.1c0,0,19.8,2.8,30.3-13.5
		c0,0,8.3-16.3,2.3-25.9L98.5,37.5L84.2,35l-3.9-14.5l2.3-3"/>
	<path class="st7" d="M16.5,100l-5.4,5.4c-0.4,0.4-0.4,1.2,0,1.6l0.6,0.6c0.4,0.4,1.2,0.4,1.6,0l5.4-5.4c0.4-0.4,0.4-1.2,0-1.6
		l-0.6-0.6C17.7,99.6,17,99.6,16.5,100z"/>
	<path class="st7" d="M64.6,39.8L63.8,39c-0.6-0.6-0.7-1.5-0.1-2.2l2.2-2.3c0.6-0.6,1.5-0.7,2.2-0.1l0.9,0.8
		c0.6,0.6,0.7,1.5,0.1,2.2l-2.2,2.3C66.2,40.4,65.2,40.4,64.6,39.8z"/>
	<path class="st7" d="M69.7,44.4l-0.9-0.8c-0.6-0.6-0.7-1.5-0.1-2.2l2.2-2.3c0.6-0.6,1.5-0.7,2.2-0.1l0.9,0.8
		c0.6,0.6,0.7,1.5,0.1,2.2l-2.2,2.3C71.3,45,70.3,45,69.7,44.4z"/>
	<path class="st7" d="M75,49.6l-0.9-0.8c-0.6-0.6-0.7-1.5-0.1-2.2l2.2-2.3c0.6-0.6,1.5-0.7,2.2-0.1l0.9,0.8c0.6,0.6,0.7,1.5,0.1,2.2
		l-2.2,2.3C76.6,50.2,75.6,50.2,75,49.6z"/>
	<path class="st7" d="M79.9,54.4L79,53.6c-0.6-0.6-0.7-1.5-0.1-2.2l2.2-2.3c0.6-0.6,1.5-0.7,2.2-0.1l0.9,0.8
		c0.6,0.6,0.7,1.5,0.1,2.2L82,54.4C81.5,55,80.5,55,79.9,54.4z"/>
	<circle class="st8" cx="71.9" cy="96.5" r="6.9"/>
	<circle class="st8" cx="109" cy="81.9" r="6.9"/>
	<circle class="st9" cx="72.1" cy="96.7" r="3.4"/>
	<circle class="st9" cx="109.1" cy="82" r="3.4"/>
	<polygon class="st6" points="59.2,89.5 59,103.2 71.3,110.9 84.2,104.4 85,103.7 84.8,88.8 71.8,81.6 	"/>
	<polygon class="st6" points="96.3,74.9 108.7,67 122.1,74.7 122.2,88.8 109,96.7 96.3,89.4 	"/>
</g>
</svg>
