<?xml version="1.0" encoding="utf-8"?>
<!-- Generator: Adobe Illustrator 23.0.1, SVG Export Plug-In . SVG Version: 6.00 Build 0)  -->
<svg version="1.1" xmlns="http://www.w3.org/2000/svg" xmlns:xlink="http://www.w3.org/1999/xlink" x="0px" y="0px"
	 viewBox="0 0 124.6 122" style="enable-background:new 0 0 124.6 122;" xml:space="preserve">
<style type="text/css">
	.st0{display:none;}
	.st1{display:inline;fill:#FFFFFF;stroke:#05A0E3;stroke-width:5.6693;stroke-miterlimit:10;}
	.st2{display:inline;fill:#05A0E3;}
	.st3{display:inline;fill:none;stroke:#FFFFFF;stroke-miterlimit:10;}
	.st4{display:inline;fill:#FFFFFF;}
	.st5{display:inline;fill:#FFFFFF;stroke:#FFFFFF;stroke-miterlimit:10;}
	.st6{display:inline;fill:#05A0E3;stroke:#FFFFFF;stroke-miterlimit:10;}
	.st7{display:inline;fill:none;stroke:#05A0E3;stroke-miterlimit:10;}
	.st8{fill:#05A0E3;}
	.st9{fill:#FFFFFF;}
</style>
<g id="Layer_1" class="st0">
	
		<image style="display:inline;overflow:visible;" width="1920" height="5181" xlink:href="../../../../../../x-web-ui-ONAS.jpg"  transform="matrix(1 0 0 1 -63.3191 -2964.0212)">
	</image>
</g>
<g id="card1" class="st0">
	<path class="st1" d="M13.3,105.6V17.4c0,0,0.3-3.8,6.8-2.4l47,7.1c0,0,1.9,0.2,2,3.8v24.5l41.7,10c0,0,1.5,0.6,1.7,4.2v43.6
		c0,0,0,3.3-4.2,3.5H64.5H30.7H17.6C17.6,111.8,13.3,112.1,13.3,105.6z"/>
	<path class="st1" d="M30.7,111.8V89.5c0,0,0.2-3.9,4.6-3.8h13.9c0,0,2.5,0.2,2.6,3.3V112L30.7,111.8z"/>
	<line class="st1" x1="69.1" y1="50.4" x2="69.1" y2="111.5"/>
	<path class="st2" d="M35.9,36.6h-9.8c-0.4,0-0.7-0.3-0.7-0.7v-2.1c0-0.4,0.3-0.7,0.7-0.7h9.8c0.4,0,0.7,0.3,0.7,0.7v2.1
		C36.6,36.3,36.2,36.6,35.9,36.6z"/>
	<path class="st2" d="M56.7,36.5H47c-0.4,0-0.7-0.3-0.7-0.7v-2.1c0-0.4,0.3-0.7,0.7-0.7h9.8c0.4,0,0.7,0.3,0.7,0.7v2.1
		C57.4,36.2,57.1,36.5,56.7,36.5z"/>
	<path class="st2" d="M35.8,49H26c-0.4,0-0.7-0.3-0.7-0.7v-2.1c0-0.4,0.3-0.7,0.7-0.7h9.8c0.4,0,0.7,0.3,0.7,0.7v2.1
		C36.5,48.6,36.2,49,35.8,49z"/>
	<path class="st2" d="M56.6,48.9h-9.8c-0.4,0-0.7-0.3-0.7-0.7V46c0-0.4,0.3-0.7,0.7-0.7h9.8c0.4,0,0.7,0.3,0.7,0.7v2.1
		C57.3,48.5,57,48.9,56.6,48.9z"/>
	<path class="st2" d="M35.7,62.2h-9.8c-0.4,0-0.7-0.3-0.7-0.7v-2.1c0-0.4,0.3-0.7,0.7-0.7h9.8c0.4,0,0.7,0.3,0.7,0.7v2.1
		C36.4,61.9,36.1,62.2,35.7,62.2z"/>
	<path class="st2" d="M56.5,62.1h-9.8c-0.4,0-0.7-0.3-0.7-0.7v-2.1c0-0.4,0.3-0.7,0.7-0.7h9.8c0.4,0,0.7,0.3,0.7,0.7v2.1
		C57.2,61.8,56.9,62.1,56.5,62.1z"/>
	<path class="st2" d="M35.7,74.6h-9.8c-0.4,0-0.7-0.3-0.7-0.7v-2.1c0-0.4,0.3-0.7,0.7-0.7h9.8c0.4,0,0.7,0.3,0.7,0.7v2.1
		C36.4,74.3,36.1,74.6,35.7,74.6z"/>
	<path class="st2" d="M56.5,74.5h-9.8c-0.4,0-0.7-0.3-0.7-0.7v-2.1c0-0.4,0.3-0.7,0.7-0.7h9.8c0.4,0,0.7,0.3,0.7,0.7v2.1
		C57.2,74.2,56.9,74.5,56.5,74.5z"/>
	<path class="st2" d="M95.6,75.1h-9.8c-0.4,0-0.7-0.3-0.7-0.7v-2.1c0-0.4,0.3-0.7,0.7-0.7h9.8c0.4,0,0.7,0.3,0.7,0.7v2.1
		C96.3,74.8,96,75.1,95.6,75.1z"/>
	<path class="st2" d="M95.3,87.9h-9.8c-0.4,0-0.7-0.3-0.7-0.7v-2.1c0-0.4,0.3-0.7,0.7-0.7h9.8c0.4,0,0.7,0.3,0.7,0.7v2.1
		C96,87.6,95.7,87.9,95.3,87.9z"/>
	<path class="st2" d="M95.4,100.6h-9.8c-0.4,0-0.7-0.3-0.7-0.7v-2.1c0-0.4,0.3-0.7,0.7-0.7h9.8c0.4,0,0.7,0.3,0.7,0.7v2.1
		C96.1,100.3,95.8,100.6,95.4,100.6z"/>
</g>
<g id="card2" class="st0">
	<path class="st3" d="M54.9,86.4H12.7c0,0-13.1,4-9.3,17.5c0,0,3.5,10.5,13.3,9.9h46.1c0,0,10.4-3.5,11.1-13.8c0,0-1.2-7.4-8.5-13.7
		c0,0-0.1-4.7-0.5-11.1c-0.6-9.4-2-22.4-4.8-30.5c0,0-1.5-2-4.2-2.2H36.6c0,0-5.9,1.6-4.1,14.1"/>
	<path class="st3" d="M64.9,75.1H49.6c0,0-5.4-7.9-9.2-8.2H11.9c0,0-1.6,0.5-1.2,7.9"/>
	<path class="st4" d="M16.5,102.3h-1.3c-1,0-1.8-0.8-1.8-1.8v-1.3c0-1,0.8-1.8,1.8-1.8h1.3c1,0,1.8,0.8,1.8,1.8v1.3
		C18.3,101.5,17.5,102.3,16.5,102.3z"/>
	<path class="st4" d="M27.8,102.3h-1.3c-1,0-1.8-0.8-1.8-1.8v-1.3c0-1,0.8-1.8,1.8-1.8h1.3c1,0,1.8,0.8,1.8,1.8v1.3
		C29.6,101.5,28.8,102.3,27.8,102.3z"/>
	<path class="st4" d="M38.7,102.3h-1.3c-1,0-1.8-0.8-1.8-1.8v-1.3c0-1,0.8-1.8,1.8-1.8h1.3c1,0,1.8,0.8,1.8,1.8v1.3
		C40.5,101.5,39.7,102.3,38.7,102.3z"/>
	<path class="st4" d="M50.3,102.2H49c-1,0-1.8-0.8-1.8-1.8v-1.3c0-1,0.8-1.8,1.8-1.8h1.3c1,0,1.8,0.8,1.8,1.8v1.3
		C52.2,101.4,51.3,102.2,50.3,102.2z"/>
	<path class="st4" d="M60.9,102.2h-1.3c-1,0-1.8-0.8-1.8-1.8v-1.3c0-1,0.8-1.8,1.8-1.8h1.3c1,0,1.8,0.8,1.8,1.8v1.3
		C62.7,101.4,61.9,102.2,60.9,102.2z"/>
	<path class="st3" d="M89,9.5h10.5h2.4h3.7c0,0,1.3,0.3,1.3,5.4v47.3"/>
	<line class="st3" x1="99.5" y1="9.5" x2="60.5" y2="34.3"/>
	<line class="st3" x1="101.9" y1="9.5" x2="72.5" y2="61.4"/>
	<circle class="st5" cx="106.1" cy="76.1" r="15.6"/>
	<circle class="st2" cx="106.3" cy="76.2" r="13"/>
</g>
<g id="card3" class="st0">
	<path class="st3" d="M15.4,116c0,0-14.5-1.8-13.3-17.4c0,0,1.6-5.5,4.8-8l46.2-40.9c0,0,2.2-4.3,1.7-12.1c0,0-2.8-14.9,8-25.7
		c0,0,11.2-13.5,32.1-7.1l-6.7,6.6"/>
	<path class="st3" d="M22.3,114.6c0,0,7.4-4.4,23.2-23.7l23.4-25.5c0,0,0.5-2.7,11.5-2.1c0,0,19.8,2.8,30.3-13.5
		c0,0,8.3-16.3,2.3-25.9L98.5,37.5L84.2,35l-3.9-14.5l2.3-3"/>
	<path class="st4" d="M16.5,100l-5.4,5.4c-0.4,0.4-0.4,1.2,0,1.6l0.6,0.6c0.4,0.4,1.2,0.4,1.6,0l5.4-5.4c0.4-0.4,0.4-1.2,0-1.6
		l-0.6-0.6C17.7,99.6,17,99.6,16.5,100z"/>
	<path class="st4" d="M64.6,39.8L63.8,39c-0.6-0.6-0.7-1.5-0.1-2.2l2.2-2.3c0.6-0.6,1.5-0.7,2.2-0.1l0.9,0.8
		c0.6,0.6,0.7,1.5,0.1,2.2l-2.2,2.3C66.2,40.4,65.2,40.4,64.6,39.8z"/>
	<path class="st4" d="M69.7,44.4l-0.9-0.8c-0.6-0.6-0.7-1.5-0.1-2.2l2.2-2.3c0.6-0.6,1.5-0.7,2.2-0.1l0.9,0.8
		c0.6,0.6,0.7,1.5,0.1,2.2l-2.2,2.3C71.3,45,70.3,45,69.7,44.4z"/>
	<path class="st4" d="M75,49.6l-0.9-0.8c-0.6-0.6-0.7-1.5-0.1-2.2l2.2-2.3c0.6-0.6,1.5-0.7,2.2-0.1l0.9,0.8c0.6,0.6,0.7,1.5,0.1,2.2
		l-2.2,2.3C76.6,50.2,75.6,50.2,75,49.6z"/>
	<path class="st4" d="M79.9,54.4L79,53.6c-0.6-0.6-0.7-1.5-0.1-2.2l2.2-2.3c0.6-0.6,1.5-0.7,2.2-0.1l0.9,0.8
		c0.6,0.6,0.7,1.5,0.1,2.2L82,54.4C81.5,55,80.5,55,79.9,54.4z"/>
	<circle class="st5" cx="71.9" cy="96.5" r="6.9"/>
	<circle class="st5" cx="109" cy="81.9" r="6.9"/>
	<circle class="st6" cx="72.1" cy="96.7" r="3.4"/>
	<circle class="st6" cx="109.1" cy="82" r="3.4"/>
	<polygon class="st3" points="59.2,89.5 59,103.2 71.3,110.9 84.2,104.4 85,103.7 84.8,88.8 71.8,81.6 	"/>
	<polygon class="st3" points="96.3,74.9 108.7,67 122.1,74.7 122.2,88.8 109,96.7 96.3,89.4 	"/>
</g>
<g id="card4" class="st0">
	<path class="st7" d="M68.2,65.3h-1h-8.2h-1.5c-0.7,0-1.4,0.6-1.4,1.4v51.2c0,0.7,0.6,1.4,1.4,1.4h10.8c0.7,0,1.4-0.6,1.4-1.4V66.6
		C69.5,65.9,68.9,65.3,68.2,65.3z"/>
	<polyline class="st7" points="58.9,65.3 58.9,65 58.9,60.4 62.9,60.4 67.1,60.4 67.1,64.8 67.1,65.3 	"/>
	<path class="st7" d="M62.9,60.4v-9.3c0,0,0-0.6,3.1-0.4h49.5c0,0,7.7-1,6.9-9.4V26.4c0,0-2.1-5.2-10.7-4.2h-0.8v6.1h-6.3V15.8h6
		h0.4l0,6.4"/>
	<polyline class="st7" points="104.6,15.8 104.6,10.3 8.7,10.3 8.7,16 2.5,16 2.5,28.6 8.7,28.6 8.7,16 	"/>
	<polyline class="st7" points="38.7,28.6 38.7,34.5 42,34.5 81.3,34.5 104.6,34.5 104.6,28.3 	"/>
	<path class="st2" d="M23.3,46.2h-1c-0.7,0-1.2-0.6-1.2-1.2V33.8c0-0.7,0.6-1.2,1.2-1.2h1c0.7,0,1.2,0.6,1.2,1.2V45
		C24.6,45.6,24,46.2,23.3,46.2z"/>
	<path class="st2" d="M31.3,36.4h-1c-0.7,0-1.3-0.6-1.3-1.3v-3.6c0-0.7,0.6-1.3,1.3-1.3h1c0.7,0,1.3,0.6,1.3,1.3v3.6
		C32.5,35.8,32,36.4,31.3,36.4z"/>
	<path class="st7" d="M8.7,28.6c0,0-0.8,6.5,4.7,5.9v16.2c0,0,0.9,6.3,6.8,4.9l1.6-0.9v9.9c0,0,2.5,3.3,5.1,2.7c0,0,2.9,0.1,3.2-4.5
		V43.4c0,0,4.9,5.8,8.4-1.4c0,0,0.4-2.9,0.2-5.7V35l0-0.5"/>
	<path class="st7" d="M21.8,54.8c0,0,1.3-2,1.2-4.8"/>
</g>
<g id="card5" class="st0">
	<path class="st7" d="M69.9,120.7H13.8c-2.4,0-4.4-2-4.4-4.4v0c0-2.4,2-4.4,4.4-4.4h56.1c0.6,0,1.1,0.1,1.6,0.3
		c1.6,0.7,2.8,2.3,2.8,4.1v0C74.3,118.7,72.3,120.7,69.9,120.7z"/>
	<path class="st7" d="M13.8,111.8V94.3c0,0-3.6-1.7-3.4-8.2V62.8"/>
	<path class="st7" d="M13.8,94.3c0,0,5.1,0.6,6.3-4.9V43.5h-9.3v12.4"/>
	<path class="st7" d="M69.7,43.5h-6.1h-7.9h-14h-4.6H13.7c-2.4,0-4.4-2-4.4-4.4v0c0-2.4,2-4.4,4.4-4.4H16h21.1h20.8h5.7h6.1
		c2.4,0,4.4,2,4.4,4.4v0c0,1.9-1.3,3.6-3,4.2C70.7,43.4,70.2,43.5,69.7,43.5z"/>
	<path class="st7" d="M37.1,43.5l0.2,8.7c0,0-0.4,1.2,1.7,2.5l6.4,4.7c0,0,1.4-0.1,1.7,3.9v14.8c0,0,0.9,3.7,4.4,3.7
		c0,0,4.1,0,4.1-3.7v-7.3"/>
	<line class="st7" x1="55.7" y1="43.5" x2="55.7" y2="64.5"/>
	<line class="st7" x1="71.2" y1="43.2" x2="71.2" y2="97.3"/>
	<line class="st7" x1="71.5" y1="112.1" x2="71.5" y2="104.1"/>
	<path class="st7" d="M37.9,103.9h-2.6c-1.9,0-3.5-1.6-3.5-3.5v-7.8c0-1.9,1.6-3.5,3.5-3.5h2.6c1.9,0,3.5,1.6,3.5,3.5v7.8
		C41.4,102.3,39.8,103.9,37.9,103.9z"/>
	<polyline class="st7" points="41.8,43.5 41.8,43 41.8,34.7 	"/>
	<line class="st7" x1="63.6" y1="43.5" x2="63.6" y2="34.6"/>
	<path class="st7" d="M16,34.6c0,0-2.4-6.9,7-12.1h13.8H58h3.4c0,0,8.8,5.6,8.4,12.1"/>
	<line class="st7" x1="37" y1="22.4" x2="37" y2="34.6"/>
	<line class="st7" x1="58" y1="22.5" x2="57.9" y2="34.6"/>
	<path class="st7" d="M58.9,22.5H25.8c-2,0-3.7-1.7-3.7-3.7V18c0-2,1.7-3.7,3.7-3.7h7.5h18.2h7.4c2,0,3.7,1.7,3.7,3.7v0.8
		C62.6,20.8,60.9,22.5,58.9,22.5z"/>
	<path class="st7" d="M51.4,14.3l0-0.4V6.9c-0.1-4.2-5.2-4.4-5.2-4.4h-4.4c-7.7-0.4-8.6,4.2-8.6,4.2v7.4"/>
	<path class="st2" d="M44.8,10.7h-1.7c-0.6,0-1.1-0.5-1.1-1.1V8.8c0-0.6,0.5-1.1,1.1-1.1h1.7c0.6,0,1.1,0.5,1.1,1.1v0.8
		C45.9,10.2,45.4,10.7,44.8,10.7z"/>
	<line class="st7" x1="69.9" y1="8.3" x2="114.1" y2="3.1"/>
	<line class="st7" x1="70.7" y1="18.3" x2="114" y2="23.2"/>
</g>
<g id="card6" class="st0">
	<path class="st4" d="M12.7,27.7L59.3,3.9c0,0,4.4-2.9,10.1,0l45.1,23.8c0,0,4.5,39.4-20,68.9c0,0-13,15.8-28.6,21.9
		c0,0-1.6,1.3-8.3-1.7c0,0-27.7-12.7-39.7-46.3C17.9,70.4,10.7,41.7,12.7,27.7z"/>
	<path class="st2" d="M26,37.1c0,0-2.7,41.8,33.5,65.5c0,0,3.9,3.7,7.4,0c0,0,30.2-10.3,34.2-65.5L65.9,18.2c0,0-2.9-1-4,0L26,37.1z
		"/>
	<path class="st4" d="M33.4,40.6l28-14.3c0,0,2.2-1.5,5.7,0L93,40c0,0,1.9,34.5-27.8,55.8c0,0-1.9,1.3-3.9,0
		C61.3,95.7,34.7,79.4,33.4,40.6z"/>
</g>
<g id="standard1" class="st0">
	<path class="st2" d="M36.9,53.5v60.7c0,0-0.9,3.3-6.7,3h-20c0,0-8.1-2.1-8.3-11.5V63.5c0,0,1.4-10.4,8.7-10.3
		C10.5,53.3,37.2,53.5,36.9,53.5z"/>
	<path class="st2" d="M42.2,55.1v54c0,0,7.2,2.6,10.8,2.9h51.3c0,0,9.2-5.3,7-14.6l-0.5-1.2c0,0,9.5-3.7,5.9-15.8c0,0,5.4-3,5.5-9.1
		c0,0,1.8-2.9-4.8-7.8c0,0,7.1-6.1,3-13.8c0,0-2.5-6.1-9.7-6.9H77.1c0,0,9.9-19.7,1.5-32c0,0-4.4-6.5-10-7.3c0,0-7.6-2-11,3.3
		l-0.2,18.9C57.4,25.8,54,38.2,42.2,55.1z"/>
</g>
<g id="standard2" class="st0">
	<polygon class="st2" points="28.5,61 41.4,65.6 48.6,78.4 62,73.1 74.8,78 81.7,66.3 95.2,61.2 93,45.5 100.5,34.6 89.1,25.4 
		87.2,11.5 71.5,11.3 62.3,2.3 52.1,11 36.6,11.5 34.8,26.4 23.7,34.4 31.2,46.2 	"/>
	<path class="st2" d="M34.7,69.9v48.3h6.9L58.4,101V81.6l-10.9,4.7c0,0-2,0.6-3.3-1.3L34.7,69.9z"/>
	<path class="st2" d="M89.7,70.3v48.3h-6.9L66,101.4V82l10.9,4.7c0,0,2,0.6,3.3-1.3L89.7,70.3z"/>
	<polygon class="st4" points="55.5,53 76.9,36.1 72.2,30.9 57.4,42.4 52.6,37.1 47.3,41.3 46.8,41.8 	"/>
</g>
<g id="standard3" class="st0">
	<circle class="st2" cx="62" cy="30.9" r="20.3"/>
	<circle class="st2" cx="25.6" cy="45.1" r="15.7"/>
	<circle class="st2" cx="97.8" cy="44.7" r="15.7"/>
	<path class="st2" d="M86.8,110.3H35.8c-1.2,0-2.1-0.9-2.1-2.1V68.1c0-6.7,5.4-12.1,12.1-12.1h30.9c6.7,0,12.1,5.4,12.1,12.1v40.1
		C88.8,109.4,87.9,110.3,86.8,110.3z"/>
	<path class="st2" d="M26.4,110.9H10.7c-4.4,0-8-3.6-8-8v-23c0-8.3,6.8-15,15-15h8.7V110.9z"/>
	<path class="st2" d="M97.2,110.5h15.7c4.4,0,8-3.6,8-8v-23c0-8.3-6.8-15-15-15h-8.7V110.5z"/>
</g>
<g id="standard4">
	<path class="st8" d="M22.3,62.4H11c-1.4,0-2.6-1.1-2.6-2.6v-0.4c0-1.4,1.1-2.6,2.6-2.6h11.3c1.4,0,2.6,1.1,2.6,2.6v0.4
		C24.9,61.3,23.7,62.4,22.3,62.4z"/>
	<path class="st8" d="M36.5,91.5l-8,8c-1,1-2.6,1-3.6,0l-0.3-0.3c-1-1-1-2.6,0-3.6l8-8c1-1,2.6-1,3.6,0l0.3,0.3
		C37.5,88.9,37.5,90.5,36.5,91.5z"/>
	<path class="st8" d="M32.8,31.9l-8.3-7.6c-1-1-1.1-2.6-0.2-3.6l0.2-0.3c1-1,2.6-1.1,3.6-0.2l8.3,7.6c1,1,1.1,2.6,0.2,3.6l-0.2,0.3
		C35.4,32.8,33.8,32.9,32.8,31.9z"/>
	<path class="st8" d="M61.5,17.8V6.6C61.5,5.1,62.6,4,64,4h0.4c1.4,0,2.6,1.1,2.6,2.6v11.3c0,1.4-1.1,2.6-2.6,2.6H64
		C62.6,20.4,61.5,19.2,61.5,17.8z"/>
	<path class="st8" d="M103.6,24l-8.3,8.3c-0.9,0.9-2.4,0.9-3.3,0l-0.6-0.6c-0.9-0.9-0.9-2.4,0-3.3l8.3-8.3c0.9-0.9,2.4-0.9,3.3,0
		l0.6,0.6C104.5,21.7,104.5,23.1,103.6,24z"/>
	<path class="st8" d="M116.8,62.6h-11.3c-1.4,0-2.6-1.1-2.6-2.6v-0.4c0-1.4,1.1-2.6,2.6-2.6h11.3c1.4,0,2.6,1.1,2.6,2.6V60
		C119.3,61.4,118.2,62.6,116.8,62.6z"/>
	<path class="st8" d="M98.9,99.1l-8-8c-1-1-1-2.6,0-3.6l0.3-0.3c1-1,2.6-1,3.6,0l8,8c1,1,1,2.6,0,3.6l-0.3,0.3
		C101.5,100.1,99.9,100.1,98.9,99.1z"/>
	<path class="st8" d="M56.3,116.4h14.4c-0.7-6.4,4.3-7.6,4.3-7.6c3.4-4.5-0.1-8.9-0.1-8.9H52.1c0,0-2.6,7.1,1.2,10.3
		C53.3,110.2,57.4,110.9,56.3,116.4z"/>
	<path class="st8" d="M63.8,30.9c-15.8,0-28.6,12.8-28.6,28.6c0,7.5,2.9,14.4,7.7,19.5c0,0,0.2,0.2,0.6,0.6c2,2.1,8.4,9.6,8.4,18.1
		h23.2C75,90.2,81.3,82.7,83.8,80c0.1-0.1,0.3-0.3,0.4-0.4c0.1-0.2,0.3-0.3,0.4-0.4c0.1-0.1,0.2-0.2,0.2-0.2
		c4.7-5.1,7.6-11.9,7.6-19.5C92.4,43.7,79.6,30.9,63.8,30.9z M63.7,45.7c0,0-13.2-0.4-14.1,14c0,1.8-1.5,3.3-3.3,3.3
		c-1.8,0-3.3-1.5-3.3-3.3c0-0.2,0-0.5,0.1-0.7c2.4-21.7,20.7-19.9,20.7-19.9c1.8,0,3.3,1.5,3.3,3.3C67,44.2,65.5,45.7,63.7,45.7z"/>
	<path class="st9" d="M67,42.4c0,1.8-1.5,3.3-3.3,3.3c0,0-13.2-0.4-14.1,14c0,1.8-1.5,3.3-3.3,3.3c-1.8,0-3.3-1.5-3.3-3.3
		c0-0.2,0-0.5,0.1-0.7c2.4-21.7,20.7-19.9,20.7-19.9C65.5,39.1,67,40.6,67,42.4z"/>
</g>
</svg>
